<?xml version="1.0" encoding="iso-8859-1"?>
<!-- Generator: Adobe Illustrator 19.0.0, SVG Export Plug-In . SVG Version: 6.00 Build 0)  -->
<svg xmlns="http://www.w3.org/2000/svg" xmlns:xlink="http://www.w3.org/1999/xlink" version="1.1" id="Layer_1" x="0px" y="0px" viewBox="0 0 512 512" style="enable-background:new 0 0 512 512;" xml:space="preserve">
<path style="fill:#E6E0CB;" d="M326.101,42.093H32.674v441.734c0,9.687,7.854,17.541,17.541,17.541h275.887  c9.687,0,17.541-7.854,17.541-17.541V59.634C343.642,49.945,335.79,42.093,326.101,42.093z"/>
<path style="opacity:0.1;enable-background:new    ;" d="M331.158,42.84c-1.602-0.481-3.297-0.748-5.057-0.748H32.674v441.734  c0,1.67,0.248,3.279,0.685,4.81h255.111c23.539,0,42.688-19.15,42.688-42.688V42.84H331.158z"/>
<path style="fill:#404040;" d="M288.469,24.428H28.601c-9.755,0-17.665,7.909-17.665,17.665v403.854  c0,9.756,7.909,17.665,17.665,17.665h259.868c9.755,0,17.665-7.909,17.665-17.665V42.093  C306.134,32.336,298.225,24.428,288.469,24.428z"/>
<path style="fill:#EE534F;" d="M82.727,10.632H69.202c-7.618,0-13.795,6.176-13.795,13.795v439.185  c0,7.618,6.176,13.795,13.795,13.795h13.526c7.619,0,13.795-6.176,13.795-13.795V24.428C96.522,16.809,90.346,10.632,82.727,10.632z  "/>
<path style="fill:#E6E0CB;" d="M250.02,98.508h-99.658c-9.698,0-17.56,7.862-17.56,17.56v47.099c0,9.698,7.862,17.56,17.56,17.56  h99.658c9.698,0,17.56-7.862,17.56-17.56v-47.099C267.58,106.37,259.718,98.508,250.02,98.508z"/>
<path style="fill:#4D4D4D;" d="M472.907,86.137H453.35v157.398h19.557c15.55,0,28.156-12.606,28.156-28.156V114.293  C501.063,98.743,488.457,86.137,472.907,86.137z"/>
<g>
	<path style="fill:#404040;" d="M436.117,7.507L436.117,7.507c-20.319,0-36.791,16.472-36.791,36.791v96.497l36.791,19.881   l36.791-19.881V44.297C472.907,23.978,456.435,7.507,436.117,7.507z"/>
	<path style="fill:#404040;" d="M436.117,450.906l-12.169,22.545v18.873c0,6.72,5.448,12.169,12.169,12.169   s12.169-5.448,12.169-12.169v-18.873L436.117,450.906z"/>
</g>
<polygon style="fill:#4D4D4D;" points="399.327,416.597 423.948,473.451 448.285,473.451 472.907,416.597 436.117,389.999 "/>
<polygon style="fill:#404040;" points="436.117,160.675 399.327,180.557 399.327,416.597 472.907,416.597 472.907,180.557 "/>
<rect x="399.326" y="140.796" style="fill:#EE534F;" width="73.581" height="39.762"/>
<path style="opacity:0.1;enable-background:new    ;" d="M451.131,10.712c-4.586-2.054-9.664-3.205-15.014-3.205  c-20.319,0-36.791,16.472-36.791,36.791v372.299h30.029v-372.3C429.356,29.328,438.3,16.457,451.131,10.712z"/>
<path d="M150.361,91.001c-13.822,0-25.067,11.245-25.067,25.067v47.099c0,13.822,11.245,25.067,25.067,25.067h99.658  c13.822,0,25.067-11.245,25.067-25.067v-47.099c0-13.822-11.245-25.067-25.067-25.067H150.361z M260.071,116.068v47.099  c0,5.543-4.509,10.053-10.053,10.053H150.36c-5.543,0-10.053-4.509-10.053-10.053v-47.099c0-5.543,4.509-10.053,10.053-10.053  h99.658C255.562,106.015,260.071,110.525,260.071,116.068z"/>
<path d="M480.414,250.241c16.071-3.458,28.156-17.772,28.156-34.862V114.293c0-17.09-12.085-31.403-28.156-34.862v-18.38  c0-4.146-3.36-7.507-7.507-7.507c-4.147,0-7.507,3.361-7.507,7.507v25.085v47.15h-58.567v-88.99  c0-16.146,13.137-29.282,29.283-29.282c12.001,0,22.976,7.522,27.31,18.719c1.496,3.866,5.841,5.791,9.711,4.291  c3.866-1.496,5.787-5.845,4.29-9.711C470.873,11.378,454.271,0,436.117,0c-24.426,0-44.298,19.872-44.298,44.297v173.907  c0,4.146,3.36,7.507,7.507,7.507s7.507-3.361,7.507-7.507v-30.14H465.4v55.472v111.801c0,4.146,3.36,7.507,7.507,7.507  c4.147,0,7.507-3.361,7.507-7.507V250.241z M493.556,114.293v101.086c0,8.738-5.456,16.227-13.142,19.237V95.057  C488.1,98.067,493.556,105.555,493.556,114.293z M406.833,173.049v-24.748h58.566v24.748H406.833z"/>
<path d="M480.414,385.366c0-4.146-3.36-7.507-7.507-7.507c-4.147,0-7.507,3.361-7.507,7.507v23.724h-58.567V248.233  c0-4.146-3.36-7.507-7.507-7.507s-7.507,3.361-7.507,7.507v168.364c0,0.764,0.122,1.531,0.35,2.26  c0.024,0.076,0.206,0.723,0.267,0.723l24.003,55.428v17.317c0,10.849,8.827,19.676,19.676,19.676  c10.849,0,19.676-8.827,19.676-19.676v-17.317c0,0,24.003-55.428,24.008-55.44c0.406-0.922,0.614-1.963,0.614-2.971L480.414,385.366  L480.414,385.366z M440.779,492.324c0,2.57-2.091,4.662-4.661,4.662c-2.571,0-4.662-2.091-4.662-4.662v-11.366h9.323  L440.779,492.324L440.779,492.324z M443.357,465.943h-14.479l-18.12-41.839h50.717L443.357,465.943z"/>
<path d="M343.643,119.035c4.147,0,7.507-3.361,7.507-7.507V59.634c0-13.811-11.237-25.048-25.048-25.048h-13.604  c-3.201-10.225-12.762-17.664-24.028-17.664H168.534c-4.147,0-7.507,3.361-7.507,7.507s3.36,7.507,7.507,7.507h119.935  c5.601,0,10.157,4.556,10.157,10.157v317.203c0,4.146,3.36,7.507,7.507,7.507c4.147,0,7.507-3.361,7.507-7.507V49.6h12.46  c5.532,0,10.034,4.501,10.034,10.034v51.894C336.136,115.674,339.496,119.035,343.643,119.035z"/>
<path d="M25.166,483.826c0,13.811,11.237,25.048,25.048,25.048h275.887c13.812,0,25.048-11.237,25.048-25.048V141.557  c0-4.146-3.36-7.507-7.507-7.507s-7.507,3.361-7.507,7.507v342.269c0,5.532-4.501,10.034-10.034,10.034H50.215  c-5.532,0-10.034-4.501-10.034-10.034v-12.707h9.084c2.235,5.912,7.217,10.691,13.202,12.699c2.149,0.721,4.468,1.096,6.736,1.096  h13.526c6.748,0,13.294-3.365,17.245-8.83c1.102-1.523,2.027-3.205,2.692-4.966h185.805c13.879,0,25.171-11.292,25.171-25.171  v-56.623c0-4.146-3.36-7.507-7.507-7.507c-4.147,0-7.507,3.361-7.507,7.507v56.623c0,5.6-4.556,10.157-10.157,10.157H104.03V31.935  h34.475c4.147,0,7.507-3.361,7.507-7.507s-3.36-7.507-7.507-7.507h-35.868C99.592,8.874,91.828,3.125,82.727,3.125H69.202  c-9.102,0-16.865,5.748-19.911,13.795h-20.69c-13.879,0-25.171,11.292-25.171,25.171v403.854c0,12.714,9.477,23.25,21.737,24.931  C25.166,470.877,25.166,483.826,25.166,483.826z M18.444,445.947V42.093c0-5.6,4.556-10.157,10.157-10.157h19.298v46.602  c0,4.146,3.36,7.507,7.507,7.507s7.507-3.361,7.507-7.507v-54.11c0-3.467,2.821-6.288,6.288-6.288h13.526  c3.467,0,6.287,2.821,6.287,6.288v439.184c0,3.467-2.82,6.288-6.287,6.288H69.202c-3.467,0-6.288-2.821-6.288-6.288V108.566  c0-4.146-3.36-7.507-7.507-7.507s-7.507,3.361-7.507,7.507v347.539H32.674h-4.072C23,456.105,18.444,451.548,18.444,445.947z"/>
<g>
</g>
<g>
</g>
<g>
</g>
<g>
</g>
<g>
</g>
<g>
</g>
<g>
</g>
<g>
</g>
<g>
</g>
<g>
</g>
<g>
</g>
<g>
</g>
<g>
</g>
<g>
</g>
<g>
</g>
</svg>
